<svg aria-hidden="true" style="position:absolute;width:0;height:0" xmlns="http://www.w3.org/2000/svg" overflow="hidden">
  <defs>
    <!-- Arrow -->
    <symbol id="arrow" viewBox="0 0 14 14">
        <path d="M14 2.074 11.926 0v10.37L1.556 0 0 1.556l10.37 10.37H0L2.074 14H14V2.074Z"/>
    </symbol>
    <!-- Basket -->
    <symbol id="basket" viewBox="0 0 24 24">
        <path fill-rule="evenodd" clip-rule="evenodd" d="M9.612 6.084C9.16 6.711 9 7.494 9 8v1h6V8c0-.507-.16-1.289-.611-1.916C13.974 5.508 13.274 5 12 5c-1.274 0-1.974.508-2.388 1.084ZM17 9V8c0-.827-.24-2.044-.988-3.084C15.226 3.825 13.926 3 12 3c-1.926 0-3.226.825-4.012 1.916C7.24 5.956 7 7.173 7 8v1H3a1 1 0 0 0 0 2h.095l.91 9.1A1 1 0 0 0 5 21h14a1 1 0 0 0 .995-.9l.91-9.1H21a1 1 0 0 0 0-2h-4Zm-8 5a1 1 0 1 0-2 0v2a1 1 0 1 0 2 0v-2Zm4 0a1 1 0 0 0-2 0v2a1 1 0 0 0 2 0v-2Zm4 0a1 1 0 0 0-2 0v2a1 1 0 0 0 2 0v-2Z"/>
    </symbol>
    <!-- Logo -->
    <symbol id="logo-icon" viewBox="0 0 16 16">
        <path d="M14.541.157h-2.005a1.11 1.11 0 0 0-1.12 1.098v1.964a1.11 1.11 0 0 0 1.12 1.098h2.005a1.11 1.11 0 0 0 1.12-1.098V1.255a1.11 1.11 0 0 0-1.12-1.098ZM3.365 11.52H1.206C.54 11.52 0 12.012 0 12.618v1.964c0 .607.54 1.098 1.206 1.098h2.16c.665 0 1.205-.491 1.205-1.098v-1.964c0-.607-.54-1.098-1.206-1.098ZM3.125 5.79H1.12C.501 5.79 0 6.283 0 6.89v1.964a1.11 1.11 0 0 0 1.12 1.098h2.005a1.11 1.11 0 0 0 1.12-1.098V6.89c0-.607-.502-1.098-1.12-1.098ZM8.883 11.49H6.878c-.618 0-1.12.49-1.12 1.097v1.964a1.11 1.11 0 0 0 1.12 1.098h2.005a1.11 1.11 0 0 0 1.12-1.098v-1.964a1.11 1.11 0 0 0-1.12-1.098ZM3.125.043H1.12C.501.043 0 .535 0 1.141v1.964a1.11 1.11 0 0 0 1.12 1.098h2.005a1.11 1.11 0 0 0 1.12-1.098V1.141c0-.606-.502-1.098-1.12-1.098ZM9.038 5.849H7.033c-.618 0-1.12.491-1.12 1.097v1.965a1.11 1.11 0 0 0 1.12 1.098h2.005c.619 0 1.12-.492 1.12-1.098V6.946c0-.606-.501-1.097-1.12-1.097ZM14.667 11.49h-2.005c-.619 0-1.12.49-1.12 1.097v1.964a1.11 1.11 0 0 0 1.12 1.098h2.005a1.11 1.11 0 0 0 1.12-1.098v-1.964c0-.607-.502-1.098-1.12-1.098ZM8.795.112H6.791c-.619 0-1.12.491-1.12 1.098v1.964a1.11 1.11 0 0 0 1.12 1.098h2.004a1.11 1.11 0 0 0 1.12-1.098V1.21c0-.607-.501-1.098-1.12-1.098ZM14.522 5.963h-2.005c-.618 0-1.12.491-1.12 1.098v1.964a1.11 1.11 0 0 0 1.12 1.098h2.005a1.11 1.11 0 0 0 1.12-1.098V7.061c0-.607-.502-1.098-1.12-1.098Z"/>
    </symbol>
    <!-- Facebook -->
    <symbol id="facebook" viewBox="0 0 28 28">
        <path d="M17.08 4.06h.84v3.15h-1.05c-.42 0-.84 0-1.05.21-.21.21-.21.42-.21.91v1.12h2.31v2.66h-2.31v11.55h-3.57V12.04h-1.89V9.38h1.89v-.91c0-1.54.21-2.66.63-3.15.63-.91 1.89-1.33 3.78-1.33.21.07.42.07.63.07Z"/>
    </symbol>
    <!-- Instagram -->
    <symbol id="instagram" viewBox="0 0 28 28">
        <g opacity=".8"><path d="M25.128 9.412a8.098 8.098 0 0 0-.521-2.752 5.73 5.73 0 0 0-3.276-3.27 8.23 8.23 0 0 0-2.719-.522C17.416 2.815 17.036 2.8 14 2.8c-3.038 0-3.427 0-4.615.068-.93.02-1.849.195-2.718.522A5.726 5.726 0 0 0 3.39 6.66a8.127 8.127 0 0 0-.522 2.713c-.053 1.196-.07 1.575-.07 4.607 0 3.033 0 3.42.07 4.607.02.93.195 1.846.522 2.716a5.73 5.73 0 0 0 3.276 3.269 8.2 8.2 0 0 0 2.718.559c1.198.053 1.577.07 4.615.07 3.037 0 3.427 0 4.615-.07a8.208 8.208 0 0 0 2.719-.52 5.736 5.736 0 0 0 3.275-3.27c.327-.87.502-1.786.521-2.716.054-1.195.07-1.574.07-4.608-.003-3.032-.003-3.417-.072-4.605ZM13.99 19.715a5.744 5.744 0 0 1-5.75-5.741 5.745 5.745 0 0 1 5.75-5.741c3.175 0 5.75 2.57 5.75 5.741a5.746 5.746 0 0 1-5.75 5.74Zm5.98-10.356a1.338 1.338 0 1 1 0-2.677 1.339 1.339 0 1 1 0 2.677Z"/><path d="M13.993 17.479a3.503 3.503 0 1 0 0-7.007 3.503 3.503 0 0 0 0 7.007Z"/></g>
    </symbol>
    <!-- Youtube -->
    <symbol id="youtube" viewBox="0 0 28 28">
        <path fill-rule="evenodd" clip-rule="evenodd" d="M21.21 5.25c-1.19-.07-3.64-.14-7.35-.14h-.49c-3.57 0-5.95.07-7.14.21-1.61.14-2.73.56-3.36 1.12-.56.49-.98 1.4-1.12 2.59-.07.77-.14 2.38-.14 4.83v.35c0 2.31.07 3.92.21 4.69.21 1.12.56 1.96 1.26 2.45.7.56 1.89.91 3.57 1.05 1.19.07 3.64.14 7.35.14h.49c3.57 0 5.95-.07 7.14-.21 1.61-.14 2.73-.56 3.36-1.12.56-.49.98-1.4 1.12-2.59.07-.77.14-2.38.14-4.83v-.35c0-2.31-.07-3.92-.21-4.69-.21-1.12-.56-1.96-1.26-2.45-.7-.56-1.89-.91-3.57-1.05Zm-2.73 8.61-7.7 4.62V9.24l7.7 4.62Z" opacity=".8"/>
    </symbol>
    <!-- Menu -->
    <symbol id="menu" viewBox="0 0 24 24">
        <path d="M2 5.995c0-.55.446-.995.995-.995h8.01a.995.995 0 1 1 0 1.99h-8.01A.995.995 0 0 1 2 5.995ZM2 12c0-.55.446-.995.995-.995h18.01a.995.995 0 1 1 0 1.99H2.995A.995.995 0 0 1 2 12Zm.995 5.01a.995.995 0 1 0 0 1.99h12.01a.995.995 0 1 0 0-1.99H2.995Z"/>
    </symbol>
    <!-- Close-dark -->
    <symbol id="close-dark" viewBox="0 0 24 24">
        <path d="M18 6 6 18M6 6l12 12" stroke="#AE1332" stroke-width="2" stroke-linecap="round" stroke-linejoin="round"/>
    </symbol>
    <!-- Close-light -->
    <symbol id="close-light" viewBox="0 0 24 24">
        <path d="M18 6 6 18M6 6l12 12" stroke="#fff" stroke-width="2" stroke-linecap="round" stroke-linejoin="round"/>
    </symbol>
    <!-- Checked -->
    <symbol id="checked" viewBox="0 0 8 8">
        <path d="M18 6 6 18M6 6l12 12" stroke="#fff" stroke-width="2" stroke-linecap="round" stroke-linejoin="round"/>
    </symbol>
  </defs>
</svg>